<svg width="372" height="135" viewBox="0 0 372 135" fill="none" xmlns="http://www.w3.org/2000/svg">
<path d="M44.3199 134L41.5999 119.6H44.1999L47.1199 134H44.3199ZM37.5999 134L34.7999 119.6H37.9999L40.7999 134H37.5999ZM38.6799 134L41.5999 119.6H44.1999L41.4799 134H38.6799ZM44.9999 134L47.7999 119.6H50.9999L48.1999 134H44.9999ZM52.9928 134V123.6H56.3128V134H52.9928ZM58.8728 134V127.46H62.1928V134H58.8728ZM58.8728 127.48C58.8728 126.947 58.7662 126.533 58.5528 126.24C58.3528 125.947 58.0662 125.8 57.6928 125.8L58.6928 123.28C59.3595 123.28 59.9528 123.467 60.4728 123.84C61.0062 124.2 61.4262 124.7 61.7328 125.34C62.0395 125.967 62.1928 126.68 62.1928 127.48H58.8728ZM55.3928 127.68C55.3928 126.84 55.5328 126.087 55.8128 125.42C56.1062 124.753 56.4995 124.233 56.9928 123.86C57.4995 123.473 58.0662 123.28 58.6928 123.28L57.6928 125.8C57.2662 125.8 56.9262 125.967 56.6728 126.3C56.4328 126.633 56.3128 127.093 56.3128 127.68H55.3928ZM52.9928 134V119.28H56.3128V134H52.9928ZM69.6814 129.52V128.08H73.0014V129.52H69.6814ZM63.8014 129.52V128.08H67.1214V129.52H63.8014ZM68.2814 125.82V123.3H68.5214V125.82H68.2814ZM68.2814 134.3V131.78H68.5214V134.3H68.2814ZM63.8014 128.1C63.8014 127.18 63.9948 126.36 64.3814 125.64C64.7814 124.92 65.3214 124.353 66.0014 123.94C66.6814 123.513 67.4481 123.3 68.3014 123.3V125.82C67.9281 125.82 67.6348 126.02 67.4214 126.42C67.2214 126.82 67.1214 127.38 67.1214 128.1H63.8014ZM73.0014 128.1H69.6814C69.6814 127.38 69.5748 126.82 69.3614 126.42C69.1614 126.02 68.8748 125.82 68.5014 125.82V123.3C69.3681 123.3 70.1348 123.513 70.8014 123.94C71.4814 124.353 72.0148 124.92 72.4014 125.64C72.8014 126.36 73.0014 127.18 73.0014 128.1ZM63.8014 129.5H67.1214C67.1214 130.22 67.2214 130.78 67.4214 131.18C67.6348 131.58 67.9281 131.78 68.3014 131.78V134.3C67.4481 134.3 66.6814 134.093 66.0014 133.68C65.3214 133.253 64.7814 132.68 64.3814 131.96C63.9948 131.227 63.8014 130.407 63.8014 129.5ZM73.0014 129.5C73.0014 130.407 72.8014 131.227 72.4014 131.96C72.0148 132.68 71.4814 133.253 70.8014 133.68C70.1348 134.093 69.3681 134.3 68.5014 134.3V131.78C68.8748 131.78 69.1614 131.58 69.3614 131.18C69.5748 130.78 69.6814 130.22 69.6814 129.5H73.0014ZM79.3061 134V123.6H82.6261V134H79.3061ZM80.9461 122.2C80.4261 122.2 79.9995 122.033 79.6661 121.7C79.3328 121.367 79.1661 120.94 79.1661 120.42C79.1661 119.913 79.3328 119.487 79.6661 119.14C79.9995 118.78 80.4261 118.6 80.9461 118.6C81.4528 118.6 81.8795 118.78 82.2261 119.14C82.5861 119.487 82.7661 119.913 82.7661 120.42C82.7661 120.94 82.5861 121.367 82.2261 121.7C81.8795 122.033 81.4528 122.2 80.9461 122.2ZM89.8041 131.1C89.8041 130.873 89.6774 130.68 89.4241 130.52C89.1841 130.36 88.8641 130.207 88.4641 130.06C88.0774 129.913 87.6641 129.753 87.2241 129.58C86.7974 129.407 86.3841 129.193 85.9841 128.94C85.5974 128.687 85.2774 128.373 85.0241 128C84.7841 127.613 84.6641 127.147 84.6641 126.6C84.6641 126.6 84.7708 126.6 84.9841 126.6C85.1974 126.6 85.4574 126.6 85.7641 126.6C86.0708 126.6 86.3774 126.6 86.6841 126.6C86.9908 126.6 87.2508 126.6 87.4641 126.6C87.6774 126.6 87.7841 126.6 87.7841 126.6C87.7841 126.827 87.9041 127.02 88.1441 127.18C88.3974 127.34 88.7174 127.493 89.1041 127.64C89.5041 127.787 89.9174 127.947 90.3441 128.12C90.7841 128.293 91.1974 128.507 91.5841 128.76C91.9841 129.013 92.3041 129.327 92.5441 129.7C92.7974 130.073 92.9241 130.54 92.9241 131.1C92.9241 131.1 92.8174 131.1 92.6041 131.1C92.3908 131.1 92.1308 131.1 91.8241 131.1C91.5174 131.1 91.2108 131.1 90.9041 131.1C90.5974 131.1 90.3374 131.1 90.1241 131.1C89.9108 131.1 89.8041 131.1 89.8041 131.1ZM88.6841 134.32V131.8C89.0308 131.8 89.3041 131.74 89.5041 131.62C89.7041 131.487 89.8041 131.313 89.8041 131.1H92.9241C92.9241 131.767 92.7508 132.347 92.4041 132.84C92.0708 133.32 91.5908 133.687 90.9641 133.94C90.3374 134.193 89.5774 134.32 88.6841 134.32ZM84.6641 126.6C84.6641 125.96 84.8374 125.393 85.1841 124.9C85.5441 124.393 86.0308 124 86.6441 123.72C87.2574 123.427 87.9508 123.28 88.7241 123.28V125.8C88.4574 125.8 88.2308 125.88 88.0441 126.04C87.8708 126.187 87.7841 126.373 87.7841 126.6H84.6641ZM87.4241 130.22C87.4908 130.713 87.6374 131.1 87.8641 131.38C88.0908 131.66 88.3708 131.8 88.7041 131.8V134.32C87.9574 134.32 87.2908 134.18 86.7041 133.9C86.1174 133.62 85.6374 133.213 85.2641 132.68C84.9041 132.133 84.6574 131.487 84.5241 130.74L87.4241 130.22ZM89.9841 127.38C89.9174 126.873 89.7708 126.487 89.5441 126.22C89.3308 125.94 89.0508 125.8 88.7041 125.8V123.28C89.4641 123.28 90.1308 123.42 90.7041 123.7C91.2908 123.98 91.7708 124.387 92.1441 124.92C92.5174 125.453 92.7641 126.1 92.8841 126.86L89.9841 127.38ZM107.728 134L109.848 123.6H113.188L110.468 134H107.728ZM101.148 134L98.428 123.6H101.768L103.888 134H101.148ZM102.248 134L104.568 123.6H107.008L104.488 134H102.248ZM107.128 134L104.608 123.6H107.048L109.368 134H107.128ZM114.79 134V123.6H118.11V134H114.79ZM120.67 134V127.46H123.99V134H120.67ZM120.67 127.48C120.67 126.947 120.563 126.533 120.35 126.24C120.15 125.947 119.863 125.8 119.49 125.8L120.49 123.28C121.156 123.28 121.75 123.467 122.27 123.84C122.803 124.2 123.223 124.7 123.53 125.34C123.836 125.967 123.99 126.68 123.99 127.48H120.67ZM117.19 127.68C117.19 126.84 117.33 126.087 117.61 125.42C117.903 124.753 118.296 124.233 118.79 123.86C119.296 123.473 119.863 123.28 120.49 123.28L119.49 125.8C119.063 125.8 118.723 125.967 118.47 126.3C118.23 126.633 118.11 127.093 118.11 127.68H117.19ZM114.79 134V119.28H118.11V134H114.79ZM131.478 129.52V128.08H134.798V129.52H131.478ZM125.598 129.52V128.08H128.918V129.52H125.598ZM130.078 125.82V123.3H130.318V125.82H130.078ZM130.078 134.3V131.78H130.318V134.3H130.078ZM125.598 128.1C125.598 127.18 125.792 126.36 126.178 125.64C126.578 124.92 127.118 124.353 127.798 123.94C128.478 123.513 129.245 123.3 130.098 123.3V125.82C129.725 125.82 129.432 126.02 129.218 126.42C129.018 126.82 128.918 127.38 128.918 128.1H125.598ZM134.798 128.1H131.478C131.478 127.38 131.372 126.82 131.158 126.42C130.958 126.02 130.672 125.82 130.298 125.82V123.3C131.165 123.3 131.932 123.513 132.598 123.94C133.278 124.353 133.812 124.92 134.198 125.64C134.598 126.36 134.798 127.18 134.798 128.1ZM125.598 129.5H128.918C128.918 130.22 129.018 130.78 129.218 131.18C129.432 131.58 129.725 131.78 130.098 131.78V134.3C129.245 134.3 128.478 134.093 127.798 133.68C127.118 133.253 126.578 132.68 126.178 131.96C125.792 131.227 125.598 130.407 125.598 129.5ZM134.798 129.5C134.798 130.407 134.598 131.227 134.198 131.96C133.812 132.68 133.278 133.253 132.598 133.68C131.932 134.093 131.165 134.3 130.298 134.3V131.78C130.672 131.78 130.958 131.58 131.158 131.18C131.372 130.78 131.478 130.22 131.478 129.5H134.798ZM141.103 134V123.6H144.423V134H141.103ZM142.743 122.2C142.223 122.2 141.796 122.033 141.463 121.7C141.13 121.367 140.963 120.94 140.963 120.42C140.963 119.913 141.13 119.487 141.463 119.14C141.796 118.78 142.223 118.6 142.743 118.6C143.25 118.6 143.676 118.78 144.023 119.14C144.383 119.487 144.563 119.913 144.563 120.42C144.563 120.94 144.383 121.367 144.023 121.7C143.676 122.033 143.25 122.2 142.743 122.2ZM147.016 134V123.6H150.336V134H147.016ZM152.896 134V127.46H156.216V134H152.896ZM152.896 127.48C152.896 126.947 152.79 126.533 152.576 126.24C152.376 125.947 152.09 125.8 151.716 125.8L152.716 123.28C153.383 123.28 153.976 123.467 154.496 123.84C155.03 124.2 155.45 124.7 155.756 125.34C156.063 125.967 156.216 126.68 156.216 127.48H152.896ZM149.416 127.68C149.416 126.84 149.556 126.087 149.836 125.42C150.13 124.753 150.523 124.233 151.016 123.86C151.523 123.473 152.09 123.28 152.716 123.28L151.716 125.8C151.29 125.8 150.95 125.967 150.696 126.3C150.456 126.633 150.336 127.093 150.336 127.68H149.416ZM167.624 134L170.744 119.6H173.144L170.024 134H167.624ZM167.544 134L164.424 119.6H166.824L169.944 134H167.544ZM162.524 134V119.6H165.844V134H162.524ZM171.724 134V119.6H175.044V134H171.724ZM178.866 129.62V127.82H186.026V129.62H178.866ZM181.446 134.32V131.8H181.646V134.32H181.446ZM176.946 129.54V128.06H180.266V129.54H176.946ZM182.706 127.82V127.66H186.026V127.82H182.706ZM186.026 127.68H182.706C182.706 127.093 182.593 126.633 182.366 126.3C182.139 125.967 181.826 125.8 181.426 125.8V123.28C182.306 123.28 183.093 123.473 183.786 123.86C184.479 124.233 185.026 124.753 185.426 125.42C185.826 126.087 186.026 126.84 186.026 127.68ZM182.926 130.22L185.826 130.74C185.706 131.487 185.459 132.133 185.086 132.68C184.713 133.213 184.233 133.62 183.646 133.9C183.073 134.18 182.406 134.32 181.646 134.32V131.8C181.993 131.8 182.273 131.66 182.486 131.38C182.713 131.1 182.859 130.713 182.926 130.22ZM176.946 128.08C176.946 127.16 177.139 126.34 177.526 125.62C177.926 124.9 178.466 124.333 179.146 123.92C179.826 123.493 180.593 123.28 181.446 123.28V125.8C181.073 125.8 180.779 126 180.566 126.4C180.366 126.8 180.266 127.36 180.266 128.08H176.946ZM176.946 129.52H180.266C180.266 130.24 180.366 130.8 180.566 131.2C180.779 131.6 181.073 131.8 181.446 131.8V134.32C180.593 134.32 179.826 134.113 179.146 133.7C178.466 133.273 177.926 132.7 177.526 131.98C177.139 131.247 176.946 130.427 176.946 129.52ZM192.771 134L186.651 123.6H190.051L196.171 134H192.771ZM186.651 134L189.711 128.8H193.111L190.051 134H186.651ZM189.711 128.8L192.771 123.6H196.171L193.111 128.8H189.711ZM198.173 134V123.6H201.493V134H198.173ZM199.813 122.2C199.293 122.2 198.867 122.033 198.533 121.7C198.2 121.367 198.033 120.94 198.033 120.42C198.033 119.913 198.2 119.487 198.533 119.14C198.867 118.78 199.293 118.6 199.813 118.6C200.32 118.6 200.747 118.78 201.093 119.14C201.453 119.487 201.633 119.913 201.633 120.42C201.633 120.94 201.453 121.367 201.093 121.7C200.747 122.033 200.32 122.2 199.813 122.2ZM203.591 129.54V128.06H206.911V129.54H203.591ZM203.591 128.08C203.591 127.16 203.785 126.34 204.171 125.62C204.571 124.9 205.111 124.333 205.791 123.92C206.471 123.493 207.238 123.28 208.091 123.28V125.8C207.718 125.8 207.425 126 207.211 126.4C207.011 126.8 206.911 127.36 206.911 128.08H203.591ZM209.351 127.38C209.285 126.873 209.138 126.487 208.911 126.22C208.698 125.94 208.418 125.8 208.071 125.8V123.28C208.831 123.28 209.498 123.42 210.071 123.7C210.658 123.98 211.138 124.387 211.511 124.92C211.885 125.453 212.131 126.1 212.251 126.86L209.351 127.38ZM203.591 129.52H206.911C206.911 130.24 207.011 130.8 207.211 131.2C207.425 131.6 207.718 131.8 208.091 131.8V134.32C207.238 134.32 206.471 134.113 205.791 133.7C205.111 133.273 204.571 132.7 204.171 131.98C203.785 131.247 203.591 130.427 203.591 129.52ZM209.351 130.22L212.251 130.74C212.131 131.487 211.885 132.133 211.511 132.68C211.138 133.213 210.658 133.62 210.071 133.9C209.498 134.18 208.831 134.32 208.071 134.32V131.8C208.418 131.8 208.698 131.66 208.911 131.38C209.138 131.1 209.285 130.713 209.351 130.22ZM219.291 129.52V128.08H222.611V129.52H219.291ZM213.411 129.52V128.08H216.731V129.52H213.411ZM217.891 125.82V123.3H218.131V125.82H217.891ZM217.891 134.3V131.78H218.131V134.3H217.891ZM213.411 128.1C213.411 127.18 213.604 126.36 213.991 125.64C214.391 124.92 214.931 124.353 215.611 123.94C216.291 123.513 217.057 123.3 217.911 123.3V125.82C217.537 125.82 217.244 126.02 217.031 126.42C216.831 126.82 216.731 127.38 216.731 128.1H213.411ZM222.611 128.1H219.291C219.291 127.38 219.184 126.82 218.971 126.42C218.771 126.02 218.484 125.82 218.111 125.82V123.3C218.977 123.3 219.744 123.513 220.411 123.94C221.091 124.353 221.624 124.92 222.011 125.64C222.411 126.36 222.611 127.18 222.611 128.1ZM213.411 129.5H216.731C216.731 130.22 216.831 130.78 217.031 131.18C217.244 131.58 217.537 131.78 217.911 131.78V134.3C217.057 134.3 216.291 134.093 215.611 133.68C214.931 133.253 214.391 132.68 213.991 131.96C213.604 131.227 213.411 130.407 213.411 129.5ZM222.611 129.5C222.611 130.407 222.411 131.227 222.011 131.96C221.624 132.68 221.091 133.253 220.411 133.68C219.744 134.093 218.977 134.3 218.111 134.3V131.78C218.484 131.78 218.771 131.58 218.971 131.18C219.184 130.78 219.291 130.22 219.291 129.5H222.611ZM226.096 134.32C225.576 134.32 225.15 134.153 224.816 133.82C224.483 133.487 224.316 133.06 224.316 132.54C224.316 132.033 224.483 131.607 224.816 131.26C225.15 130.9 225.576 130.72 226.096 130.72C226.603 130.72 227.03 130.9 227.376 131.26C227.736 131.607 227.916 132.033 227.916 132.54C227.916 133.06 227.736 133.487 227.376 133.82C227.03 134.153 226.603 134.32 226.096 134.32ZM237.041 134V131.48H241.721V134H237.041ZM234.321 134V119.6H237.641V134H234.321ZM244.745 129.62V127.82H251.905V129.62H244.745ZM247.325 134.32V131.8H247.525V134.32H247.325ZM242.825 129.54V128.06H246.145V129.54H242.825ZM248.585 127.82V127.66H251.905V127.82H248.585ZM251.905 127.68H248.585C248.585 127.093 248.472 126.633 248.245 126.3C248.018 125.967 247.705 125.8 247.305 125.8V123.28C248.185 123.28 248.972 123.473 249.665 123.86C250.358 124.233 250.905 124.753 251.305 125.42C251.705 126.087 251.905 126.84 251.905 127.68ZM248.805 130.22L251.705 130.74C251.585 131.487 251.338 132.133 250.965 132.68C250.592 133.213 250.112 133.62 249.525 133.9C248.952 134.18 248.285 134.32 247.525 134.32V131.8C247.872 131.8 248.152 131.66 248.365 131.38C248.592 131.1 248.738 130.713 248.805 130.22ZM242.825 128.08C242.825 127.16 243.018 126.34 243.405 125.62C243.805 124.9 244.345 124.333 245.025 123.92C245.705 123.493 246.472 123.28 247.325 123.28V125.8C246.952 125.8 246.658 126 246.445 126.4C246.245 126.8 246.145 127.36 246.145 128.08H242.825ZM242.825 129.52H246.145C246.145 130.24 246.245 130.8 246.445 131.2C246.658 131.6 246.952 131.8 247.325 131.8V134.32C246.472 134.32 245.705 134.113 245.025 133.7C244.345 133.273 243.805 132.7 243.405 131.98C243.018 131.247 242.825 130.427 242.825 129.52ZM254.278 130.14V119.6H257.598V130.14H254.278ZM253.118 126V123.6H260.118V126H253.118ZM254.278 130.12H257.598C257.598 130.467 257.645 130.767 257.738 131.02C257.831 131.273 257.965 131.467 258.138 131.6C258.325 131.733 258.538 131.8 258.778 131.8L258.378 134.32C257.085 134.32 256.078 133.953 255.358 133.22C254.638 132.473 254.278 131.44 254.278 130.12ZM259.658 131.46L260.818 133.52C260.405 133.813 259.998 134.02 259.598 134.14C259.211 134.26 258.805 134.32 258.378 134.32L258.778 131.8C258.951 131.8 259.111 131.773 259.258 131.72C259.405 131.653 259.538 131.567 259.658 131.46ZM262.426 124.84C262.68 124.453 262.886 124.127 263.046 123.86C263.22 123.593 263.353 123.347 263.446 123.12C263.553 122.88 263.626 122.62 263.666 122.34C263.706 122.047 263.726 121.693 263.726 121.28L266.046 121.08C266.046 121.64 265.953 122.173 265.766 122.68C265.593 123.187 265.353 123.687 265.046 124.18C264.753 124.673 264.426 125.193 264.066 125.74L262.426 124.84ZM264.226 122.86C263.706 122.86 263.28 122.693 262.946 122.36C262.613 122.027 262.446 121.6 262.446 121.08C262.446 120.573 262.613 120.147 262.946 119.8C263.28 119.44 263.706 119.26 264.226 119.26C264.733 119.26 265.16 119.44 265.506 119.8C265.866 120.147 266.046 120.573 266.046 121.08C266.046 121.6 265.866 122.027 265.506 122.36C265.16 122.693 264.733 122.86 264.226 122.86ZM273.222 131.1C273.222 130.873 273.095 130.68 272.842 130.52C272.602 130.36 272.282 130.207 271.882 130.06C271.495 129.913 271.082 129.753 270.642 129.58C270.215 129.407 269.802 129.193 269.402 128.94C269.015 128.687 268.695 128.373 268.442 128C268.202 127.613 268.082 127.147 268.082 126.6C268.082 126.6 268.189 126.6 268.402 126.6C268.615 126.6 268.875 126.6 269.182 126.6C269.489 126.6 269.795 126.6 270.102 126.6C270.409 126.6 270.669 126.6 270.882 126.6C271.095 126.6 271.202 126.6 271.202 126.6C271.202 126.827 271.322 127.02 271.562 127.18C271.815 127.34 272.135 127.493 272.522 127.64C272.922 127.787 273.335 127.947 273.762 128.12C274.202 128.293 274.615 128.507 275.002 128.76C275.402 129.013 275.722 129.327 275.962 129.7C276.215 130.073 276.342 130.54 276.342 131.1C276.342 131.1 276.235 131.1 276.022 131.1C275.809 131.1 275.549 131.1 275.242 131.1C274.935 131.1 274.629 131.1 274.322 131.1C274.015 131.1 273.755 131.1 273.542 131.1C273.329 131.1 273.222 131.1 273.222 131.1ZM272.102 134.32V131.8C272.449 131.8 272.722 131.74 272.922 131.62C273.122 131.487 273.222 131.313 273.222 131.1H276.342C276.342 131.767 276.169 132.347 275.822 132.84C275.489 133.32 275.009 133.687 274.382 133.94C273.755 134.193 272.995 134.32 272.102 134.32ZM268.082 126.6C268.082 125.96 268.255 125.393 268.602 124.9C268.962 124.393 269.449 124 270.062 123.72C270.675 123.427 271.369 123.28 272.142 123.28V125.8C271.875 125.8 271.649 125.88 271.462 126.04C271.289 126.187 271.202 126.373 271.202 126.6H268.082ZM270.842 130.22C270.909 130.713 271.055 131.1 271.282 131.38C271.509 131.66 271.789 131.8 272.122 131.8V134.32C271.375 134.32 270.709 134.18 270.122 133.9C269.535 133.62 269.055 133.213 268.682 132.68C268.322 132.133 268.075 131.487 267.942 130.74L270.842 130.22ZM273.402 127.38C273.335 126.873 273.189 126.487 272.962 126.22C272.749 125.94 272.469 125.8 272.122 125.8V123.28C272.882 123.28 273.549 123.42 274.122 123.7C274.709 123.98 275.189 124.387 275.562 124.92C275.935 125.453 276.182 126.1 276.302 126.86L273.402 127.38ZM287.226 131.1C287.226 130.873 287.099 130.68 286.846 130.52C286.606 130.36 286.286 130.207 285.886 130.06C285.499 129.913 285.086 129.753 284.646 129.58C284.219 129.407 283.806 129.193 283.406 128.94C283.019 128.687 282.699 128.373 282.446 128C282.206 127.613 282.086 127.147 282.086 126.6C282.086 126.6 282.193 126.6 282.406 126.6C282.619 126.6 282.879 126.6 283.186 126.6C283.493 126.6 283.799 126.6 284.106 126.6C284.413 126.6 284.673 126.6 284.886 126.6C285.099 126.6 285.206 126.6 285.206 126.6C285.206 126.827 285.326 127.02 285.566 127.18C285.819 127.34 286.139 127.493 286.526 127.64C286.926 127.787 287.339 127.947 287.766 128.12C288.206 128.293 288.619 128.507 289.006 128.76C289.406 129.013 289.726 129.327 289.966 129.7C290.219 130.073 290.346 130.54 290.346 131.1C290.346 131.1 290.239 131.1 290.026 131.1C289.813 131.1 289.553 131.1 289.246 131.1C288.939 131.1 288.633 131.1 288.326 131.1C288.019 131.1 287.759 131.1 287.546 131.1C287.333 131.1 287.226 131.1 287.226 131.1ZM286.106 134.32V131.8C286.453 131.8 286.726 131.74 286.926 131.62C287.126 131.487 287.226 131.313 287.226 131.1H290.346C290.346 131.767 290.173 132.347 289.826 132.84C289.493 133.32 289.013 133.687 288.386 133.94C287.759 134.193 286.999 134.32 286.106 134.32ZM282.086 126.6C282.086 125.96 282.259 125.393 282.606 124.9C282.966 124.393 283.453 124 284.066 123.72C284.679 123.427 285.373 123.28 286.146 123.28V125.8C285.879 125.8 285.653 125.88 285.466 126.04C285.293 126.187 285.206 126.373 285.206 126.6H282.086ZM284.846 130.22C284.913 130.713 285.059 131.1 285.286 131.38C285.513 131.66 285.793 131.8 286.126 131.8V134.32C285.379 134.32 284.713 134.18 284.126 133.9C283.539 133.62 283.059 133.213 282.686 132.68C282.326 132.133 282.079 131.487 281.946 130.74L284.846 130.22ZM287.406 127.38C287.339 126.873 287.193 126.487 286.966 126.22C286.753 125.94 286.473 125.8 286.126 125.8V123.28C286.886 123.28 287.553 123.42 288.126 123.7C288.713 123.98 289.193 124.387 289.566 124.92C289.939 125.453 290.186 126.1 290.306 126.86L287.406 127.38ZM292.715 130.14V119.6H296.035V130.14H292.715ZM291.555 126V123.6H298.555V126H291.555ZM292.715 130.12H296.035C296.035 130.467 296.082 130.767 296.175 131.02C296.269 131.273 296.402 131.467 296.575 131.6C296.762 131.733 296.975 131.8 297.215 131.8L296.815 134.32C295.522 134.32 294.515 133.953 293.795 133.22C293.075 132.473 292.715 131.44 292.715 130.12ZM298.095 131.46L299.255 133.52C298.842 133.813 298.435 134.02 298.035 134.14C297.649 134.26 297.242 134.32 296.815 134.32L297.215 131.8C297.389 131.8 297.549 131.773 297.695 131.72C297.842 131.653 297.975 131.567 298.095 131.46ZM305.58 134V127.46H308.9V134H305.58ZM303.28 134.3L303.88 131.9C304.2 131.9 304.487 131.82 304.74 131.66C304.994 131.487 305.194 131.247 305.34 130.94C305.5 130.62 305.58 130.247 305.58 129.82L306.9 129.62C306.9 130.513 306.734 131.313 306.4 132.02C306.067 132.727 305.627 133.287 305.08 133.7C304.534 134.1 303.934 134.3 303.28 134.3ZM303.28 134.3C302.6 134.3 302 134.16 301.48 133.88C300.974 133.6 300.58 133.22 300.3 132.74C300.02 132.247 299.88 131.693 299.88 131.08L302.8 130.88C302.8 131.173 302.9 131.42 303.1 131.62C303.314 131.807 303.574 131.9 303.88 131.9L303.28 134.3ZM299.88 131.08C299.88 130.453 300.054 129.9 300.4 129.42C300.76 128.927 301.24 128.54 301.84 128.26C302.44 127.967 303.12 127.82 303.88 127.82L304.28 129.82C303.814 129.82 303.447 129.913 303.18 130.1C302.927 130.287 302.8 130.547 302.8 130.88L299.88 131.08ZM304.28 129.82L303.88 127.82H306.18V129.82H304.28ZM305.58 129.82V127.66H306.9V129.62L305.58 129.82ZM308.9 127.68H305.58C305.58 127.093 305.467 126.633 305.24 126.3C305.014 125.967 304.7 125.8 304.3 125.8V123.28C305.18 123.28 305.967 123.473 306.66 123.86C307.354 124.233 307.9 124.753 308.3 125.42C308.7 126.087 308.9 126.84 308.9 127.68ZM303.04 127.38L300.14 126.86C300.274 126.1 300.52 125.453 300.88 124.92C301.254 124.387 301.734 123.98 302.32 123.7C302.907 123.42 303.574 123.28 304.32 123.28V125.8C303.987 125.8 303.707 125.94 303.48 126.22C303.254 126.487 303.107 126.873 303.04 127.38ZM310.805 134V123.6H314.125V134H310.805ZM313.205 128.08C313.205 127.16 313.332 126.34 313.585 125.62C313.852 124.9 314.212 124.333 314.665 123.92C315.119 123.507 315.632 123.3 316.205 123.3L315.405 126.2C315.005 126.2 314.692 126.367 314.465 126.7C314.239 127.033 314.125 127.493 314.125 128.08H313.205ZM316.925 127C316.752 126.773 316.519 126.587 316.225 126.44C315.945 126.28 315.672 126.2 315.405 126.2L316.205 123.3C316.552 123.3 316.865 123.373 317.145 123.52C317.425 123.653 317.719 123.887 318.025 124.22L316.925 127ZM320.391 130.14V119.6H323.711V130.14H320.391ZM319.231 126V123.6H326.231V126H319.231ZM320.391 130.12H323.711C323.711 130.467 323.758 130.767 323.851 131.02C323.944 131.273 324.078 131.467 324.251 131.6C324.438 131.733 324.651 131.8 324.891 131.8L324.491 134.32C323.198 134.32 322.191 133.953 321.471 133.22C320.751 132.473 320.391 131.44 320.391 130.12ZM325.771 131.46L326.931 133.52C326.518 133.813 326.111 134.02 325.711 134.14C325.324 134.26 324.918 134.32 324.491 134.32L324.891 131.8C325.064 131.8 325.224 131.773 325.371 131.72C325.518 131.653 325.651 131.567 325.771 131.46ZM332.739 134V123.6H336.059V134H332.739ZM338.619 134V127.46H341.939V134H338.619ZM338.619 127.48C338.619 126.947 338.512 126.533 338.299 126.24C338.099 125.947 337.812 125.8 337.439 125.8L338.439 123.28C339.106 123.28 339.699 123.467 340.219 123.84C340.752 124.2 341.172 124.7 341.479 125.34C341.786 125.967 341.939 126.68 341.939 127.48H338.619ZM335.139 127.68C335.139 126.84 335.279 126.087 335.559 125.42C335.852 124.753 336.246 124.233 336.739 123.86C337.246 123.473 337.812 123.28 338.439 123.28L337.439 125.8C337.012 125.8 336.672 125.967 336.419 126.3C336.179 126.633 336.059 127.093 336.059 127.68H335.139ZM332.739 134V119.28H336.059V134H332.739ZM345.468 129.62V127.82H352.628V129.62H345.468ZM348.048 134.32V131.8H348.248V134.32H348.048ZM343.548 129.54V128.06H346.868V129.54H343.548ZM349.308 127.82V127.66H352.628V127.82H349.308ZM352.628 127.68H349.308C349.308 127.093 349.194 126.633 348.968 126.3C348.741 125.967 348.428 125.8 348.028 125.8V123.28C348.908 123.28 349.694 123.473 350.388 123.86C351.081 124.233 351.628 124.753 352.028 125.42C352.428 126.087 352.628 126.84 352.628 127.68ZM349.528 130.22L352.428 130.74C352.308 131.487 352.061 132.133 351.688 132.68C351.314 133.213 350.834 133.62 350.248 133.9C349.674 134.18 349.008 134.32 348.248 134.32V131.8C348.594 131.8 348.874 131.66 349.088 131.38C349.314 131.1 349.461 130.713 349.528 130.22ZM343.548 128.08C343.548 127.16 343.741 126.34 344.128 125.62C344.528 124.9 345.068 124.333 345.748 123.92C346.428 123.493 347.194 123.28 348.048 123.28V125.8C347.674 125.8 347.381 126 347.168 126.4C346.968 126.8 346.868 127.36 346.868 128.08H343.548ZM343.548 129.52H346.868C346.868 130.24 346.968 130.8 347.168 131.2C347.381 131.6 347.674 131.8 348.048 131.8V134.32C347.194 134.32 346.428 134.113 345.748 133.7C345.068 133.273 344.528 132.7 344.128 131.98C343.741 131.247 343.548 130.427 343.548 129.52ZM354.341 134V123.6H357.661V134H354.341ZM356.741 128.08C356.741 127.16 356.867 126.34 357.121 125.62C357.387 124.9 357.747 124.333 358.201 123.92C358.654 123.507 359.167 123.3 359.741 123.3L358.941 126.2C358.541 126.2 358.227 126.367 358.001 126.7C357.774 127.033 357.661 127.493 357.661 128.08H356.741ZM360.461 127C360.287 126.773 360.054 126.587 359.761 126.44C359.481 126.28 359.207 126.2 358.941 126.2L359.741 123.3C360.087 123.3 360.401 123.373 360.681 123.52C360.961 123.653 361.254 123.887 361.561 124.22L360.461 127ZM363.886 129.62V127.82H371.046V129.62H363.886ZM366.466 134.32V131.8H366.666V134.32H366.466ZM361.966 129.54V128.06H365.286V129.54H361.966ZM367.726 127.82V127.66H371.046V127.82H367.726ZM371.046 127.68H367.726C367.726 127.093 367.612 126.633 367.386 126.3C367.159 125.967 366.846 125.8 366.446 125.8V123.28C367.326 123.28 368.112 123.473 368.806 123.86C369.499 124.233 370.046 124.753 370.446 125.42C370.846 126.087 371.046 126.84 371.046 127.68ZM367.946 130.22L370.846 130.74C370.726 131.487 370.479 132.133 370.106 132.68C369.732 133.213 369.252 133.62 368.666 133.9C368.092 134.18 367.426 134.32 366.666 134.32V131.8C367.012 131.8 367.292 131.66 367.506 131.38C367.732 131.1 367.879 130.713 367.946 130.22ZM361.966 128.08C361.966 127.16 362.159 126.34 362.546 125.62C362.946 124.9 363.486 124.333 364.166 123.92C364.846 123.493 365.612 123.28 366.466 123.28V125.8C366.092 125.8 365.799 126 365.586 126.4C365.386 126.8 365.286 127.36 365.286 128.08H361.966ZM361.966 129.52H365.286C365.286 130.24 365.386 130.8 365.586 131.2C365.799 131.6 366.092 131.8 366.466 131.8V134.32C365.612 134.32 364.846 134.113 364.166 133.7C363.486 133.273 362.946 132.7 362.546 131.98C362.159 131.247 361.966 130.427 361.966 129.52Z" fill="#3F40C2"/>
<path d="M33.7516 9.71817C33.4067 12.1722 31.1377 13.8821 28.6836 13.5372C26.2295 13.1923 24.5197 10.9233 24.8646 8.46918C25.2095 6.01509 27.4785 4.30526 29.9326 4.65016C32.3867 4.99506 34.0965 7.26408 33.7516 9.71817Z" fill="#243071"/>
<path d="M60.1913 27.9343C59.8464 30.3883 57.5774 32.0982 55.1233 31.7533C52.6692 31.4084 50.9594 29.1394 51.3043 26.6853C51.6492 24.2312 53.9182 22.5214 56.3723 22.8663C58.8264 23.2112 60.5362 25.4802 60.1913 27.9343Z" fill="#243071"/>
<path d="M72.4127 44.1518C72.0678 46.6059 69.7988 48.3157 67.3447 47.9708C64.8906 47.6259 63.1808 45.3569 63.5257 42.9028C63.8706 40.4487 66.1396 38.7389 68.5937 39.0838C71.0478 39.4287 72.7576 41.6977 72.4127 44.1518Z" fill="#243071"/>
<path d="M45.9718 25.9358C45.6269 28.3899 43.3579 30.0998 40.9038 29.7549C38.4498 29.41 36.7399 27.1409 37.0848 24.6869C37.4297 22.2328 39.6987 20.5229 42.1528 20.8678C44.6069 21.2127 46.3167 23.4818 45.9718 25.9358Z" fill="#243071"/>
<path d="M58.193 42.1534C57.8481 44.6075 55.579 46.3174 53.125 45.9725C50.6709 45.6276 48.961 43.3585 49.3059 40.9044C49.6508 38.4504 51.9199 36.7405 54.3739 37.0854C56.828 37.4303 58.5379 39.6994 58.193 42.1534Z" fill="#243071"/>
<path d="M70.4144 58.371C70.0695 60.8251 67.8004 62.5349 65.3463 62.19C62.8923 61.8451 61.1824 59.5761 61.5273 57.122C61.8722 54.6679 64.1413 52.9581 66.5953 53.303C69.0494 53.6479 70.7593 55.9169 70.4144 58.371Z" fill="#243071"/>
<path d="M17.5337 21.9389C17.1888 24.393 14.9198 26.1028 12.4657 25.7579C10.0116 25.413 8.30182 23.144 8.64672 20.6899C8.99161 18.2359 11.2606 16.526 13.7147 16.8709C16.1688 17.2158 17.8786 19.4848 17.5337 21.9389Z" fill="#243071"/>
<path d="M15.5354 36.1583C15.1905 38.6124 12.9214 40.3222 10.4673 39.9773C8.01327 39.6324 6.30343 37.3634 6.64833 34.9093C6.99323 32.4552 9.26225 30.7454 11.7163 31.0903C14.1704 31.4352 15.8803 33.7042 15.5354 36.1583Z" fill="#243071"/>
<path d="M29.7548 38.1566C29.4099 40.6107 27.1409 42.3205 24.6868 41.9756C22.2327 41.6307 20.5229 39.3617 20.8678 36.9076C21.2127 34.4535 23.4817 32.7437 25.9358 33.0886C28.3899 33.4335 30.0997 35.7025 29.7548 38.1566Z" fill="#243071"/>
<path d="M27.7565 52.376C27.4116 54.8301 25.1426 56.5399 22.6885 56.195C20.2344 55.8501 18.5246 53.5811 18.8695 51.127C19.2144 48.6729 21.4834 46.9631 23.9375 47.308C26.3916 47.6529 28.1014 49.9219 27.7565 52.376Z" fill="#243071"/>
<path d="M21.3096 7.9695C20.8267 11.4052 17.6501 13.799 14.2144 13.3161C10.7787 12.8333 8.38491 9.65663 8.86777 6.22091C9.35063 2.7852 12.5273 0.391434 15.963 0.874293C19.3987 1.35715 21.7925 4.53378 21.3096 7.9695Z" fill="#243071"/>
<path d="M33.5304 24.1872C33.0476 27.623 29.8709 30.0167 26.4352 29.5339C22.9995 29.051 20.6057 25.8744 21.0886 22.4387C21.5715 19.0029 24.7481 16.6092 28.1838 17.092C31.6195 17.5749 34.0133 20.7515 33.5304 24.1872Z" fill="#243071"/>
<path d="M45.7518 40.4047C45.269 43.8404 42.0923 46.2342 38.6566 45.7513C35.2209 45.2685 32.8271 42.0918 33.31 38.6561C33.7928 35.2204 36.9695 32.8266 40.4052 33.3095C43.8409 33.7924 46.2347 36.969 45.7518 40.4047Z" fill="#243071"/>
<path d="M57.972 56.6224C57.4892 60.0581 54.3126 62.4518 50.8768 61.969C47.4411 61.4861 45.0474 58.3095 45.5302 54.8738C46.0131 51.4381 49.1897 49.0443 52.6254 49.5272C56.0611 50.01 58.4549 53.1866 57.972 56.6224Z" fill="#243071"/>
<path d="M70.1929 72.8402C69.71 76.2759 66.5334 78.6696 63.0977 78.1868C59.6619 77.7039 57.2682 74.5273 57.751 71.0916C58.2339 67.6559 61.4105 65.2621 64.8462 65.745C68.282 66.2278 70.6757 69.4044 70.1929 72.8402Z" fill="#243071"/>
<path d="M47.9705 11.7164C47.6256 14.1705 45.3566 15.8803 42.9025 15.5354C40.4484 15.1905 38.7386 12.9215 39.0835 10.4674C39.4284 8.01332 41.6974 6.30349 44.1515 6.64839C46.6056 6.99329 48.3154 9.26231 47.9705 11.7164Z" fill="#243071"/>
<path d="M39.9773 68.5936C39.6324 71.0477 37.3634 72.7575 34.9093 72.4126C32.4552 72.0677 30.7454 69.7987 31.0903 67.3446C31.4352 64.8905 33.7042 63.1807 36.1583 63.5256C38.6123 63.8705 40.3222 66.1395 39.9773 68.5936Z" fill="#243071"/>
<path d="M54.1965 70.5919C53.8516 73.046 51.5826 74.7559 49.1285 74.411C46.6744 74.0661 44.9646 71.797 45.3095 69.343C45.6544 66.8889 47.9234 65.179 50.3775 65.5239C52.8316 65.8688 54.5414 68.1379 54.1965 70.5919Z" fill="#243071"/>
<path d="M41.9757 54.3743C41.6308 56.8284 39.3617 58.5382 36.9077 58.1933C34.4536 57.8484 32.7437 55.5794 33.0886 53.1253C33.4335 50.6712 35.7026 48.9614 38.1566 49.3063C40.6107 49.6512 42.3206 51.9202 41.9757 54.3743Z" fill="#243071"/>
<path d="M60.4131 13.4651C60.2061 14.9375 58.8447 15.9634 57.3723 15.7565C55.8998 15.5496 54.8739 14.1881 55.0809 12.7157C55.2878 11.2432 56.6492 10.2173 58.1217 10.4243C59.5941 10.6312 60.62 11.9926 60.4131 13.4651Z" fill="#243071"/>
<path d="M11.7598 50.1279C11.5529 51.6004 10.1914 52.6263 8.71899 52.4193C7.24654 52.2124 6.22064 50.851 6.42758 49.3785C6.63452 47.9061 7.99593 46.8802 9.46838 47.0871C10.9408 47.294 11.9667 48.6555 11.7598 50.1279Z" fill="#243071"/>
<path d="M9.76141 64.347C9.55447 65.8194 8.19306 66.8453 6.72061 66.6384C5.24816 66.4314 4.22226 65.07 4.4292 63.5976C4.63614 62.1251 5.99755 61.0992 7.47 61.3062C8.94245 61.5131 9.96835 62.8745 9.76141 64.347Z" fill="#243071"/>
<path d="M23.9809 66.3452C23.774 67.8177 22.4126 68.8436 20.9401 68.6367C19.4677 68.4297 18.4418 67.0683 18.6487 65.5959C18.8556 64.1234 20.2171 63.0975 21.6895 63.3044C23.162 63.5114 24.1879 64.8728 23.9809 66.3452Z" fill="#243071"/>
<path d="M72.6339 29.6828C72.427 31.1553 71.0655 32.1812 69.5931 31.9742C68.1206 31.7673 67.0947 30.4059 67.3017 28.9334C67.5086 27.461 68.87 26.4351 70.3425 26.642C71.8149 26.8489 72.8408 28.2104 72.6339 29.6828Z" fill="#243071"/>
<path d="M74.6317 15.4634C74.4248 16.9359 73.0633 17.9618 71.5909 17.7548C70.1184 17.5479 69.0925 16.1865 69.2995 14.714C69.5064 13.2416 70.8678 12.2157 72.3403 12.4226C73.8127 12.6295 74.8386 13.991 74.6317 15.4634Z" fill="#243071"/>
<path d="M143.24 62L138.28 48.76H144.68L149.64 62H143.24ZM137.64 51.56V46.52H139.64V51.56H137.64ZM137.64 38.24V33.2H139.64V38.24H137.64ZM142.36 43.2V41.56H149V43.2H142.36ZM149 41.6H142.36C142.36 40.5333 142.107 39.7067 141.6 39.12C141.12 38.5333 140.453 38.24 139.6 38.24V33.2C141.387 33.2 142.987 33.5733 144.4 34.32C145.813 35.04 146.933 36.04 147.76 37.32C148.587 38.5733 149 40 149 41.6ZM149 43.16C149 44.76 148.587 46.2 147.76 47.48C146.933 48.7333 145.813 49.7333 144.4 50.48C142.987 51.2 141.387 51.56 139.6 51.56V46.52C140.453 46.52 141.12 46.2267 141.6 45.64C142.107 45.0533 142.36 44.2267 142.36 43.16H149ZM131.4 62V33.2H138.04V62H131.4ZM163.996 53.04V50.16H170.636V53.04H163.996ZM152.236 53.04V50.16H158.876V53.04H152.236ZM161.196 45.64V40.6H161.676V45.64H161.196ZM161.196 62.6V57.56H161.676V62.6H161.196ZM152.236 50.2C152.236 48.36 152.622 46.72 153.396 45.28C154.196 43.84 155.276 42.7067 156.636 41.88C157.996 41.0267 159.529 40.6 161.236 40.6V45.64C160.489 45.64 159.902 46.04 159.476 46.84C159.076 47.64 158.876 48.76 158.876 50.2H152.236ZM170.636 50.2H163.996C163.996 48.76 163.782 47.64 163.356 46.84C162.956 46.04 162.382 45.64 161.636 45.64V40.6C163.369 40.6 164.902 41.0267 166.236 41.88C167.596 42.7067 168.662 43.84 169.436 45.28C170.236 46.72 170.636 48.36 170.636 50.2ZM152.236 53H158.876C158.876 54.44 159.076 55.56 159.476 56.36C159.902 57.16 160.489 57.56 161.236 57.56V62.6C159.529 62.6 157.996 62.1867 156.636 61.36C155.276 60.5067 154.196 59.36 153.396 57.92C152.622 56.4533 152.236 54.8133 152.236 53ZM170.636 53C170.636 54.8133 170.236 56.4533 169.436 57.92C168.662 59.36 167.596 60.5067 166.236 61.36C164.902 62.1867 163.369 62.6 161.636 62.6V57.56C162.382 57.56 162.956 57.16 163.356 56.36C163.782 55.56 163.996 54.44 163.996 53H170.636ZM185.247 62V48.92H191.887V62H185.247ZM180.647 62.6L181.847 57.8C182.487 57.8 183.06 57.64 183.567 57.32C184.073 56.9733 184.473 56.4933 184.767 55.88C185.087 55.24 185.247 54.4933 185.247 53.64L187.887 53.24C187.887 55.0267 187.553 56.6267 186.887 58.04C186.22 59.4533 185.34 60.5733 184.247 61.4C183.153 62.2 181.953 62.6 180.647 62.6ZM180.647 62.6C179.287 62.6 178.087 62.32 177.047 61.76C176.033 61.2 175.247 60.44 174.687 59.48C174.127 58.4933 173.847 57.3867 173.847 56.16L179.687 55.76C179.687 56.3467 179.887 56.84 180.287 57.24C180.713 57.6133 181.233 57.8 181.847 57.8L180.647 62.6ZM173.847 56.16C173.847 54.9067 174.193 53.8 174.887 52.84C175.607 51.8533 176.567 51.08 177.767 50.52C178.967 49.9333 180.327 49.64 181.847 49.64L182.647 53.64C181.713 53.64 180.98 53.8267 180.447 54.2C179.94 54.5733 179.687 55.0933 179.687 55.76L173.847 56.16ZM182.647 53.64L181.847 49.64H186.447V53.64H182.647ZM185.247 53.64V49.32H187.887V53.24L185.247 53.64ZM191.887 49.36H185.247C185.247 48.1867 185.02 47.2667 184.567 46.6C184.113 45.9333 183.487 45.6 182.687 45.6V40.56C184.447 40.56 186.02 40.9467 187.407 41.72C188.793 42.4667 189.887 43.5067 190.687 44.84C191.487 46.1733 191.887 47.68 191.887 49.36ZM180.167 48.76L174.367 47.72C174.633 46.2 175.127 44.9067 175.847 43.84C176.593 42.7733 177.553 41.96 178.727 41.4C179.9 40.84 181.233 40.56 182.727 40.56V45.6C182.06 45.6 181.5 45.88 181.047 46.44C180.593 46.9733 180.3 47.7467 180.167 48.76ZM213.887 41.28H207.247V33.2H213.887V41.28ZM207.247 62V41.2H213.887V62H207.247ZM195.487 54.24V48.96H202.127V54.24H195.487ZM202.127 48.96H195.487C195.487 47.36 195.794 45.9333 196.407 44.68C197.021 43.4 197.847 42.4 198.887 41.68C199.954 40.9333 201.154 40.56 202.487 40.56L204.487 45.6C203.741 45.6 203.154 45.8933 202.727 46.48C202.327 47.0667 202.127 47.8933 202.127 48.96ZM209.087 49.36H207.247C207.247 48.1867 206.994 47.2667 206.487 46.6C206.007 45.9333 205.341 45.6 204.487 45.6L202.487 40.56C203.741 40.56 204.861 40.9467 205.847 41.72C206.861 42.4667 207.647 43.5067 208.207 44.84C208.794 46.1733 209.087 47.68 209.087 49.36ZM202.127 54.24C202.127 55.3067 202.327 56.1333 202.727 56.72C203.154 57.3067 203.741 57.6 204.487 57.6L202.487 62.64C201.154 62.64 199.954 62.28 198.887 61.56C197.847 60.8133 197.021 59.8133 196.407 58.56C195.794 57.28 195.487 55.84 195.487 54.24H202.127ZM209.087 53.84C209.087 55.52 208.794 57.0267 208.207 58.36C207.647 59.6667 206.861 60.7067 205.847 61.48C204.861 62.2533 203.741 62.64 202.487 62.64L204.487 57.6C205.341 57.6 206.007 57.2667 206.487 56.6C206.994 55.9333 207.247 55.0133 207.247 53.84H209.087ZM218.705 62V41.2H225.345V62H218.705ZM229.665 62V48.92H236.305V62H229.665ZM223.505 49.36C223.505 47.68 223.758 46.1733 224.265 44.84C224.798 43.5067 225.518 42.4667 226.425 41.72C227.331 40.9467 228.358 40.56 229.505 40.56L227.505 45.6C226.838 45.6 226.305 45.9333 225.905 46.6C225.531 47.2667 225.345 48.1867 225.345 49.36H223.505ZM229.665 48.92C229.665 47.88 229.478 47.0667 229.105 46.48C228.731 45.8933 228.198 45.6 227.505 45.6L229.505 40.56C230.811 40.56 231.971 40.9333 232.985 41.68C233.998 42.4 234.798 43.3867 235.385 44.64C235.998 45.8933 236.305 47.32 236.305 48.92H229.665ZM240.625 62V48.92H247.265V62H240.625ZM234.465 49.36C234.465 47.68 234.718 46.1733 235.225 44.84C235.758 43.5067 236.478 42.4667 237.385 41.72C238.291 40.9467 239.318 40.56 240.465 40.56L238.465 45.6C237.798 45.6 237.265 45.9333 236.865 46.6C236.491 47.2667 236.305 48.1867 236.305 49.36H234.465ZM240.625 48.92C240.625 47.88 240.438 47.0667 240.065 46.48C239.691 45.8933 239.158 45.6 238.465 45.6L240.465 40.56C241.771 40.56 242.931 40.9333 243.945 41.68C244.958 42.4 245.758 43.3867 246.345 44.64C246.958 45.8933 247.265 47.32 247.265 48.92H240.625ZM262.278 62V48.92H268.918V62H262.278ZM257.678 62.6L258.878 57.8C259.518 57.8 260.091 57.64 260.598 57.32C261.105 56.9733 261.505 56.4933 261.798 55.88C262.118 55.24 262.278 54.4933 262.278 53.64L264.918 53.24C264.918 55.0267 264.585 56.6267 263.918 58.04C263.251 59.4533 262.371 60.5733 261.278 61.4C260.185 62.2 258.985 62.6 257.678 62.6ZM257.678 62.6C256.318 62.6 255.118 62.32 254.078 61.76C253.065 61.2 252.278 60.44 251.718 59.48C251.158 58.4933 250.878 57.3867 250.878 56.16L256.718 55.76C256.718 56.3467 256.918 56.84 257.318 57.24C257.745 57.6133 258.265 57.8 258.878 57.8L257.678 62.6ZM250.878 56.16C250.878 54.9067 251.225 53.8 251.918 52.84C252.638 51.8533 253.598 51.08 254.798 50.52C255.998 49.9333 257.358 49.64 258.878 49.64L259.678 53.64C258.745 53.64 258.011 53.8267 257.478 54.2C256.971 54.5733 256.718 55.0933 256.718 55.76L250.878 56.16ZM259.678 53.64L258.878 49.64H263.478V53.64H259.678ZM262.278 53.64V49.32H264.918V53.24L262.278 53.64ZM268.918 49.36H262.278C262.278 48.1867 262.051 47.2667 261.598 46.6C261.145 45.9333 260.518 45.6 259.718 45.6V40.56C261.478 40.56 263.051 40.9467 264.438 41.72C265.825 42.4667 266.918 43.5067 267.718 44.84C268.518 46.1733 268.918 47.68 268.918 49.36ZM257.198 48.76L251.398 47.72C251.665 46.2 252.158 44.9067 252.878 43.84C253.625 42.7733 254.585 41.96 255.758 41.4C256.931 40.84 258.265 40.56 259.758 40.56V45.6C259.091 45.6 258.531 45.88 258.078 46.44C257.625 46.9733 257.331 47.7467 257.198 48.76ZM272.728 61.92H279.368V70H272.728V61.92ZM279.368 41.2V62H272.728V41.2H279.368ZM291.128 48.96V54.24H284.488V48.96H291.128ZM284.488 54.24H291.128C291.128 55.84 290.821 57.28 290.208 58.56C289.595 59.8133 288.755 60.8133 287.688 61.56C286.648 62.28 285.461 62.64 284.128 62.64L282.128 57.6C282.875 57.6 283.448 57.3067 283.848 56.72C284.275 56.1333 284.488 55.3067 284.488 54.24ZM277.528 53.84H279.368C279.368 55.0133 279.608 55.9333 280.088 56.6C280.595 57.2667 281.275 57.6 282.128 57.6L284.128 62.64C282.875 62.64 281.741 62.2533 280.728 61.48C279.741 60.7067 278.955 59.6667 278.368 58.36C277.808 57.0267 277.528 55.52 277.528 53.84ZM284.488 48.96C284.488 47.8933 284.275 47.0667 283.848 46.48C283.448 45.8933 282.875 45.6 282.128 45.6L284.128 40.56C285.461 40.56 286.648 40.9333 287.688 41.68C288.755 42.4 289.595 43.4 290.208 44.68C290.821 45.9333 291.128 47.36 291.128 48.96H284.488ZM277.528 49.36C277.528 47.68 277.808 46.1733 278.368 44.84C278.955 43.5067 279.741 42.4667 280.728 41.72C281.741 40.9467 282.875 40.56 284.128 40.56L282.128 45.6C281.275 45.6 280.595 45.9333 280.088 46.6C279.608 47.2667 279.368 48.1867 279.368 49.36H277.528ZM298.505 62.64C297.465 62.64 296.612 62.3067 295.945 61.64C295.279 60.9733 294.945 60.12 294.945 59.08C294.945 58.0667 295.279 57.2133 295.945 56.52C296.612 55.8 297.465 55.44 298.505 55.44C299.519 55.44 300.372 55.8 301.065 56.52C301.785 57.2133 302.145 58.0667 302.145 59.08C302.145 60.12 301.785 60.9733 301.065 61.64C300.372 62.3067 299.519 62.64 298.505 62.64ZM306.556 62V41.2H313.196V62H306.556ZM317.516 62V48.92H324.156V62H317.516ZM311.356 49.36C311.356 47.68 311.609 46.1733 312.116 44.84C312.649 43.5067 313.369 42.4667 314.276 41.72C315.183 40.9467 316.209 40.56 317.356 40.56L315.356 45.6C314.689 45.6 314.156 45.9333 313.756 46.6C313.383 47.2667 313.196 48.1867 313.196 49.36H311.356ZM317.516 48.92C317.516 47.88 317.329 47.0667 316.956 46.48C316.583 45.8933 316.049 45.6 315.356 45.6L317.356 40.56C318.663 40.56 319.823 40.9333 320.836 41.68C321.849 42.4 322.649 43.3867 323.236 44.64C323.849 45.8933 324.156 47.32 324.156 48.92H317.516ZM328.476 62V48.92H335.116V62H328.476ZM322.316 49.36C322.316 47.68 322.569 46.1733 323.076 44.84C323.609 43.5067 324.329 42.4667 325.236 41.72C326.143 40.9467 327.169 40.56 328.316 40.56L326.316 45.6C325.649 45.6 325.116 45.9333 324.716 46.6C324.343 47.2667 324.156 48.1867 324.156 49.36H322.316ZM328.476 48.92C328.476 47.88 328.289 47.0667 327.916 46.48C327.543 45.8933 327.009 45.6 326.316 45.6L328.316 40.56C329.623 40.56 330.783 40.9333 331.796 41.68C332.809 42.4 333.609 43.3867 334.196 44.64C334.809 45.8933 335.116 47.32 335.116 48.92H328.476ZM349.002 62L336.762 41.2H343.562L355.802 62H349.002ZM336.762 62L342.882 51.6H349.682L343.562 62H336.762ZM342.882 51.6L349.002 41.2H355.802L349.682 51.6H342.882Z" fill="#243071"/>
</svg>
