<svg width="356" height="80" viewBox="0 0 356 80" fill="none" xmlns="http://www.w3.org/2000/svg">
<path d="M33.7516 9.71817C33.4067 12.1722 31.1377 13.8821 28.6836 13.5372C26.2295 13.1923 24.5197 10.9233 24.8646 8.46918C25.2095 6.01509 27.4785 4.30526 29.9326 4.65016C32.3867 4.99506 34.0965 7.26408 33.7516 9.71817Z" fill="#243071"/>
<path d="M60.1913 27.9343C59.8464 30.3883 57.5774 32.0982 55.1233 31.7533C52.6692 31.4084 50.9594 29.1394 51.3043 26.6853C51.6492 24.2312 53.9182 22.5214 56.3723 22.8663C58.8264 23.2112 60.5362 25.4802 60.1913 27.9343Z" fill="#243071"/>
<path d="M72.4127 44.1518C72.0678 46.6059 69.7988 48.3157 67.3447 47.9708C64.8906 47.6259 63.1808 45.3569 63.5257 42.9028C63.8706 40.4487 66.1396 38.7389 68.5937 39.0838C71.0478 39.4287 72.7576 41.6977 72.4127 44.1518Z" fill="#243071"/>
<path d="M45.9718 25.9358C45.6269 28.3899 43.3579 30.0998 40.9038 29.7549C38.4498 29.41 36.7399 27.1409 37.0848 24.6869C37.4297 22.2328 39.6987 20.5229 42.1528 20.8678C44.6069 21.2127 46.3167 23.4818 45.9718 25.9358Z" fill="#243071"/>
<path d="M58.193 42.1534C57.8481 44.6075 55.579 46.3174 53.125 45.9725C50.6709 45.6276 48.961 43.3585 49.3059 40.9044C49.6508 38.4504 51.9199 36.7405 54.3739 37.0854C56.828 37.4303 58.5379 39.6994 58.193 42.1534Z" fill="#243071"/>
<path d="M70.4144 58.371C70.0695 60.8251 67.8004 62.5349 65.3463 62.19C62.8923 61.8451 61.1824 59.5761 61.5273 57.122C61.8722 54.6679 64.1413 52.9581 66.5953 53.303C69.0494 53.6479 70.7593 55.9169 70.4144 58.371Z" fill="#243071"/>
<path d="M17.5337 21.9389C17.1888 24.393 14.9198 26.1028 12.4657 25.7579C10.0116 25.413 8.30182 23.144 8.64672 20.6899C8.99161 18.2359 11.2606 16.526 13.7147 16.8709C16.1688 17.2158 17.8786 19.4848 17.5337 21.9389Z" fill="#243071"/>
<path d="M15.5354 36.1583C15.1905 38.6124 12.9214 40.3222 10.4673 39.9773C8.01327 39.6324 6.30343 37.3634 6.64833 34.9093C6.99323 32.4552 9.26225 30.7454 11.7163 31.0903C14.1704 31.4352 15.8803 33.7042 15.5354 36.1583Z" fill="#243071"/>
<path d="M29.7548 38.1566C29.4099 40.6107 27.1409 42.3205 24.6868 41.9756C22.2327 41.6307 20.5229 39.3617 20.8678 36.9076C21.2127 34.4535 23.4817 32.7437 25.9358 33.0886C28.3899 33.4335 30.0997 35.7025 29.7548 38.1566Z" fill="#243071"/>
<path d="M27.7565 52.376C27.4116 54.8301 25.1426 56.5399 22.6885 56.195C20.2344 55.8501 18.5246 53.5811 18.8695 51.127C19.2144 48.6729 21.4834 46.9631 23.9375 47.308C26.3916 47.6529 28.1014 49.9219 27.7565 52.376Z" fill="#243071"/>
<path d="M21.3096 7.9695C20.8267 11.4052 17.6501 13.799 14.2144 13.3161C10.7787 12.8333 8.38491 9.65663 8.86777 6.22091C9.35063 2.7852 12.5273 0.391434 15.963 0.874293C19.3987 1.35715 21.7925 4.53378 21.3096 7.9695Z" fill="#243071"/>
<path d="M33.5304 24.1872C33.0476 27.623 29.8709 30.0167 26.4352 29.5339C22.9995 29.051 20.6057 25.8744 21.0886 22.4387C21.5715 19.0029 24.7481 16.6092 28.1838 17.092C31.6195 17.5749 34.0133 20.7515 33.5304 24.1872Z" fill="#243071"/>
<path d="M45.7518 40.4047C45.269 43.8404 42.0923 46.2342 38.6566 45.7513C35.2209 45.2685 32.8271 42.0918 33.31 38.6561C33.7928 35.2204 36.9695 32.8266 40.4052 33.3095C43.8409 33.7924 46.2347 36.969 45.7518 40.4047Z" fill="#243071"/>
<path d="M57.972 56.6224C57.4892 60.0581 54.3126 62.4518 50.8768 61.969C47.4411 61.4861 45.0474 58.3095 45.5302 54.8738C46.0131 51.4381 49.1897 49.0443 52.6254 49.5272C56.0611 50.01 58.4549 53.1866 57.972 56.6224Z" fill="#243071"/>
<path d="M70.1929 72.8402C69.71 76.2759 66.5334 78.6696 63.0977 78.1868C59.6619 77.7039 57.2682 74.5273 57.751 71.0916C58.2339 67.6559 61.4105 65.2621 64.8462 65.745C68.282 66.2278 70.6757 69.4044 70.1929 72.8402Z" fill="#243071"/>
<path d="M47.9705 11.7164C47.6256 14.1705 45.3566 15.8803 42.9025 15.5354C40.4484 15.1905 38.7386 12.9215 39.0835 10.4674C39.4284 8.01332 41.6974 6.30349 44.1515 6.64839C46.6056 6.99329 48.3154 9.26231 47.9705 11.7164Z" fill="#243071"/>
<path d="M39.9773 68.5936C39.6324 71.0477 37.3634 72.7575 34.9093 72.4126C32.4552 72.0677 30.7454 69.7987 31.0903 67.3446C31.4352 64.8905 33.7042 63.1807 36.1583 63.5256C38.6123 63.8705 40.3222 66.1395 39.9773 68.5936Z" fill="#243071"/>
<path d="M54.1965 70.5919C53.8516 73.046 51.5826 74.7559 49.1285 74.411C46.6744 74.0661 44.9646 71.797 45.3095 69.343C45.6544 66.8889 47.9234 65.179 50.3775 65.5239C52.8316 65.8688 54.5414 68.1379 54.1965 70.5919Z" fill="#243071"/>
<path d="M41.9757 54.3743C41.6308 56.8284 39.3617 58.5382 36.9077 58.1933C34.4536 57.8484 32.7437 55.5794 33.0886 53.1253C33.4335 50.6712 35.7026 48.9614 38.1566 49.3063C40.6107 49.6512 42.3206 51.9202 41.9757 54.3743Z" fill="#243071"/>
<path d="M60.4131 13.4651C60.2061 14.9375 58.8447 15.9634 57.3723 15.7565C55.8998 15.5496 54.8739 14.1881 55.0809 12.7157C55.2878 11.2432 56.6492 10.2173 58.1217 10.4243C59.5941 10.6312 60.62 11.9926 60.4131 13.4651Z" fill="#243071"/>
<path d="M11.7598 50.1279C11.5529 51.6004 10.1914 52.6263 8.71899 52.4193C7.24654 52.2124 6.22064 50.851 6.42758 49.3785C6.63452 47.9061 7.99593 46.8802 9.46838 47.0871C10.9408 47.294 11.9667 48.6555 11.7598 50.1279Z" fill="#243071"/>
<path d="M9.76141 64.347C9.55447 65.8194 8.19306 66.8453 6.72061 66.6384C5.24816 66.4314 4.22226 65.07 4.4292 63.5976C4.63614 62.1251 5.99755 61.0992 7.47 61.3062C8.94245 61.5131 9.96835 62.8745 9.76141 64.347Z" fill="#243071"/>
<path d="M23.9809 66.3452C23.774 67.8177 22.4126 68.8436 20.9401 68.6367C19.4677 68.4297 18.4418 67.0683 18.6487 65.5959C18.8556 64.1234 20.2171 63.0975 21.6895 63.3044C23.162 63.5114 24.1879 64.8728 23.9809 66.3452Z" fill="#243071"/>
<path d="M72.6339 29.6828C72.427 31.1553 71.0655 32.1812 69.5931 31.9742C68.1206 31.7673 67.0947 30.4059 67.3017 28.9334C67.5086 27.461 68.87 26.4351 70.3425 26.642C71.8149 26.8489 72.8408 28.2104 72.6339 29.6828Z" fill="#243071"/>
<path d="M74.6317 15.4634C74.4248 16.9359 73.0633 17.9618 71.5909 17.7548C70.1184 17.5479 69.0925 16.1865 69.2995 14.714C69.5064 13.2416 70.8678 12.2157 72.3403 12.4226C73.8127 12.6295 74.8386 13.991 74.6317 15.4634Z" fill="#243071"/>
<path d="M143.24 62L138.28 48.76H144.68L149.64 62H143.24ZM137.64 51.56V46.52H139.64V51.56H137.64ZM137.64 38.24V33.2H139.64V38.24H137.64ZM142.36 43.2V41.56H149V43.2H142.36ZM149 41.6H142.36C142.36 40.5333 142.107 39.7067 141.6 39.12C141.12 38.5333 140.453 38.24 139.6 38.24V33.2C141.387 33.2 142.987 33.5733 144.4 34.32C145.813 35.04 146.933 36.04 147.76 37.32C148.587 38.5733 149 40 149 41.6ZM149 43.16C149 44.76 148.587 46.2 147.76 47.48C146.933 48.7333 145.813 49.7333 144.4 50.48C142.987 51.2 141.387 51.56 139.6 51.56V46.52C140.453 46.52 141.12 46.2267 141.6 45.64C142.107 45.0533 142.36 44.2267 142.36 43.16H149ZM131.4 62V33.2H138.04V62H131.4ZM163.996 53.04V50.16H170.636V53.04H163.996ZM152.236 53.04V50.16H158.876V53.04H152.236ZM161.196 45.64V40.6H161.676V45.64H161.196ZM161.196 62.6V57.56H161.676V62.6H161.196ZM152.236 50.2C152.236 48.36 152.622 46.72 153.396 45.28C154.196 43.84 155.276 42.7067 156.636 41.88C157.996 41.0267 159.529 40.6 161.236 40.6V45.64C160.489 45.64 159.902 46.04 159.476 46.84C159.076 47.64 158.876 48.76 158.876 50.2H152.236ZM170.636 50.2H163.996C163.996 48.76 163.782 47.64 163.356 46.84C162.956 46.04 162.382 45.64 161.636 45.64V40.6C163.369 40.6 164.902 41.0267 166.236 41.88C167.596 42.7067 168.662 43.84 169.436 45.28C170.236 46.72 170.636 48.36 170.636 50.2ZM152.236 53H158.876C158.876 54.44 159.076 55.56 159.476 56.36C159.902 57.16 160.489 57.56 161.236 57.56V62.6C159.529 62.6 157.996 62.1867 156.636 61.36C155.276 60.5067 154.196 59.36 153.396 57.92C152.622 56.4533 152.236 54.8133 152.236 53ZM170.636 53C170.636 54.8133 170.236 56.4533 169.436 57.92C168.662 59.36 167.596 60.5067 166.236 61.36C164.902 62.1867 163.369 62.6 161.636 62.6V57.56C162.382 57.56 162.956 57.16 163.356 56.36C163.782 55.56 163.996 54.44 163.996 53H170.636ZM185.247 62V48.92H191.887V62H185.247ZM180.647 62.6L181.847 57.8C182.487 57.8 183.06 57.64 183.567 57.32C184.073 56.9733 184.473 56.4933 184.767 55.88C185.087 55.24 185.247 54.4933 185.247 53.64L187.887 53.24C187.887 55.0267 187.553 56.6267 186.887 58.04C186.22 59.4533 185.34 60.5733 184.247 61.4C183.153 62.2 181.953 62.6 180.647 62.6ZM180.647 62.6C179.287 62.6 178.087 62.32 177.047 61.76C176.033 61.2 175.247 60.44 174.687 59.48C174.127 58.4933 173.847 57.3867 173.847 56.16L179.687 55.76C179.687 56.3467 179.887 56.84 180.287 57.24C180.713 57.6133 181.233 57.8 181.847 57.8L180.647 62.6ZM173.847 56.16C173.847 54.9067 174.193 53.8 174.887 52.84C175.607 51.8533 176.567 51.08 177.767 50.52C178.967 49.9333 180.327 49.64 181.847 49.64L182.647 53.64C181.713 53.64 180.98 53.8267 180.447 54.2C179.94 54.5733 179.687 55.0933 179.687 55.76L173.847 56.16ZM182.647 53.64L181.847 49.64H186.447V53.64H182.647ZM185.247 53.64V49.32H187.887V53.24L185.247 53.64ZM191.887 49.36H185.247C185.247 48.1867 185.02 47.2667 184.567 46.6C184.113 45.9333 183.487 45.6 182.687 45.6V40.56C184.447 40.56 186.02 40.9467 187.407 41.72C188.793 42.4667 189.887 43.5067 190.687 44.84C191.487 46.1733 191.887 47.68 191.887 49.36ZM180.167 48.76L174.367 47.72C174.633 46.2 175.127 44.9067 175.847 43.84C176.593 42.7733 177.553 41.96 178.727 41.4C179.9 40.84 181.233 40.56 182.727 40.56V45.6C182.06 45.6 181.5 45.88 181.047 46.44C180.593 46.9733 180.3 47.7467 180.167 48.76ZM213.887 41.28H207.247V33.2H213.887V41.28ZM207.247 62V41.2H213.887V62H207.247ZM195.487 54.24V48.96H202.127V54.24H195.487ZM202.127 48.96H195.487C195.487 47.36 195.794 45.9333 196.407 44.68C197.021 43.4 197.847 42.4 198.887 41.68C199.954 40.9333 201.154 40.56 202.487 40.56L204.487 45.6C203.741 45.6 203.154 45.8933 202.727 46.48C202.327 47.0667 202.127 47.8933 202.127 48.96ZM209.087 49.36H207.247C207.247 48.1867 206.994 47.2667 206.487 46.6C206.007 45.9333 205.341 45.6 204.487 45.6L202.487 40.56C203.741 40.56 204.861 40.9467 205.847 41.72C206.861 42.4667 207.647 43.5067 208.207 44.84C208.794 46.1733 209.087 47.68 209.087 49.36ZM202.127 54.24C202.127 55.3067 202.327 56.1333 202.727 56.72C203.154 57.3067 203.741 57.6 204.487 57.6L202.487 62.64C201.154 62.64 199.954 62.28 198.887 61.56C197.847 60.8133 197.021 59.8133 196.407 58.56C195.794 57.28 195.487 55.84 195.487 54.24H202.127ZM209.087 53.84C209.087 55.52 208.794 57.0267 208.207 58.36C207.647 59.6667 206.861 60.7067 205.847 61.48C204.861 62.2533 203.741 62.64 202.487 62.64L204.487 57.6C205.341 57.6 206.007 57.2667 206.487 56.6C206.994 55.9333 207.247 55.0133 207.247 53.84H209.087ZM218.705 62V41.2H225.345V62H218.705ZM229.665 62V48.92H236.305V62H229.665ZM223.505 49.36C223.505 47.68 223.758 46.1733 224.265 44.84C224.798 43.5067 225.518 42.4667 226.425 41.72C227.331 40.9467 228.358 40.56 229.505 40.56L227.505 45.6C226.838 45.6 226.305 45.9333 225.905 46.6C225.531 47.2667 225.345 48.1867 225.345 49.36H223.505ZM229.665 48.92C229.665 47.88 229.478 47.0667 229.105 46.48C228.731 45.8933 228.198 45.6 227.505 45.6L229.505 40.56C230.811 40.56 231.971 40.9333 232.985 41.68C233.998 42.4 234.798 43.3867 235.385 44.64C235.998 45.8933 236.305 47.32 236.305 48.92H229.665ZM240.625 62V48.92H247.265V62H240.625ZM234.465 49.36C234.465 47.68 234.718 46.1733 235.225 44.84C235.758 43.5067 236.478 42.4667 237.385 41.72C238.291 40.9467 239.318 40.56 240.465 40.56L238.465 45.6C237.798 45.6 237.265 45.9333 236.865 46.6C236.491 47.2667 236.305 48.1867 236.305 49.36H234.465ZM240.625 48.92C240.625 47.88 240.438 47.0667 240.065 46.48C239.691 45.8933 239.158 45.6 238.465 45.6L240.465 40.56C241.771 40.56 242.931 40.9333 243.945 41.68C244.958 42.4 245.758 43.3867 246.345 44.64C246.958 45.8933 247.265 47.32 247.265 48.92H240.625ZM262.278 62V48.92H268.918V62H262.278ZM257.678 62.6L258.878 57.8C259.518 57.8 260.091 57.64 260.598 57.32C261.105 56.9733 261.505 56.4933 261.798 55.88C262.118 55.24 262.278 54.4933 262.278 53.64L264.918 53.24C264.918 55.0267 264.585 56.6267 263.918 58.04C263.251 59.4533 262.371 60.5733 261.278 61.4C260.185 62.2 258.985 62.6 257.678 62.6ZM257.678 62.6C256.318 62.6 255.118 62.32 254.078 61.76C253.065 61.2 252.278 60.44 251.718 59.48C251.158 58.4933 250.878 57.3867 250.878 56.16L256.718 55.76C256.718 56.3467 256.918 56.84 257.318 57.24C257.745 57.6133 258.265 57.8 258.878 57.8L257.678 62.6ZM250.878 56.16C250.878 54.9067 251.225 53.8 251.918 52.84C252.638 51.8533 253.598 51.08 254.798 50.52C255.998 49.9333 257.358 49.64 258.878 49.64L259.678 53.64C258.745 53.64 258.011 53.8267 257.478 54.2C256.971 54.5733 256.718 55.0933 256.718 55.76L250.878 56.16ZM259.678 53.64L258.878 49.64H263.478V53.64H259.678ZM262.278 53.64V49.32H264.918V53.24L262.278 53.64ZM268.918 49.36H262.278C262.278 48.1867 262.051 47.2667 261.598 46.6C261.145 45.9333 260.518 45.6 259.718 45.6V40.56C261.478 40.56 263.051 40.9467 264.438 41.72C265.825 42.4667 266.918 43.5067 267.718 44.84C268.518 46.1733 268.918 47.68 268.918 49.36ZM257.198 48.76L251.398 47.72C251.665 46.2 252.158 44.9067 252.878 43.84C253.625 42.7733 254.585 41.96 255.758 41.4C256.931 40.84 258.265 40.56 259.758 40.56V45.6C259.091 45.6 258.531 45.88 258.078 46.44C257.625 46.9733 257.331 47.7467 257.198 48.76ZM272.728 61.92H279.368V70H272.728V61.92ZM279.368 41.2V62H272.728V41.2H279.368ZM291.128 48.96V54.24H284.488V48.96H291.128ZM284.488 54.24H291.128C291.128 55.84 290.821 57.28 290.208 58.56C289.595 59.8133 288.755 60.8133 287.688 61.56C286.648 62.28 285.461 62.64 284.128 62.64L282.128 57.6C282.875 57.6 283.448 57.3067 283.848 56.72C284.275 56.1333 284.488 55.3067 284.488 54.24ZM277.528 53.84H279.368C279.368 55.0133 279.608 55.9333 280.088 56.6C280.595 57.2667 281.275 57.6 282.128 57.6L284.128 62.64C282.875 62.64 281.741 62.2533 280.728 61.48C279.741 60.7067 278.955 59.6667 278.368 58.36C277.808 57.0267 277.528 55.52 277.528 53.84ZM284.488 48.96C284.488 47.8933 284.275 47.0667 283.848 46.48C283.448 45.8933 282.875 45.6 282.128 45.6L284.128 40.56C285.461 40.56 286.648 40.9333 287.688 41.68C288.755 42.4 289.595 43.4 290.208 44.68C290.821 45.9333 291.128 47.36 291.128 48.96H284.488ZM277.528 49.36C277.528 47.68 277.808 46.1733 278.368 44.84C278.955 43.5067 279.741 42.4667 280.728 41.72C281.741 40.9467 282.875 40.56 284.128 40.56L282.128 45.6C281.275 45.6 280.595 45.9333 280.088 46.6C279.608 47.2667 279.368 48.1867 279.368 49.36H277.528ZM298.505 62.64C297.465 62.64 296.612 62.3067 295.945 61.64C295.279 60.9733 294.945 60.12 294.945 59.08C294.945 58.0667 295.279 57.2133 295.945 56.52C296.612 55.8 297.465 55.44 298.505 55.44C299.519 55.44 300.372 55.8 301.065 56.52C301.785 57.2133 302.145 58.0667 302.145 59.08C302.145 60.12 301.785 60.9733 301.065 61.64C300.372 62.3067 299.519 62.64 298.505 62.64ZM306.556 62V41.2H313.196V62H306.556ZM317.516 62V48.92H324.156V62H317.516ZM311.356 49.36C311.356 47.68 311.609 46.1733 312.116 44.84C312.649 43.5067 313.369 42.4667 314.276 41.72C315.183 40.9467 316.209 40.56 317.356 40.56L315.356 45.6C314.689 45.6 314.156 45.9333 313.756 46.6C313.383 47.2667 313.196 48.1867 313.196 49.36H311.356ZM317.516 48.92C317.516 47.88 317.329 47.0667 316.956 46.48C316.583 45.8933 316.049 45.6 315.356 45.6L317.356 40.56C318.663 40.56 319.823 40.9333 320.836 41.68C321.849 42.4 322.649 43.3867 323.236 44.64C323.849 45.8933 324.156 47.32 324.156 48.92H317.516ZM328.476 62V48.92H335.116V62H328.476ZM322.316 49.36C322.316 47.68 322.569 46.1733 323.076 44.84C323.609 43.5067 324.329 42.4667 325.236 41.72C326.143 40.9467 327.169 40.56 328.316 40.56L326.316 45.6C325.649 45.6 325.116 45.9333 324.716 46.6C324.343 47.2667 324.156 48.1867 324.156 49.36H322.316ZM328.476 48.92C328.476 47.88 328.289 47.0667 327.916 46.48C327.543 45.8933 327.009 45.6 326.316 45.6L328.316 40.56C329.623 40.56 330.783 40.9333 331.796 41.68C332.809 42.4 333.609 43.3867 334.196 44.64C334.809 45.8933 335.116 47.32 335.116 48.92H328.476ZM349.002 62L336.762 41.2H343.562L355.802 62H349.002ZM336.762 62L342.882 51.6H349.682L343.562 62H336.762ZM342.882 51.6L349.002 41.2H355.802L349.682 51.6H342.882Z" fill="#243071"/>
</svg>
