<svg width="45" height="45" viewBox="0 0 45 45" fill="none" xmlns="http://www.w3.org/2000/svg">
<path d="M19.0934 5.53089C18.8893 6.89644 17.6169 7.83799 16.2513 7.63391C14.8858 7.42983 13.9442 6.15739 14.1483 4.79185C14.3524 3.4263 15.6248 2.48475 16.9904 2.68883C18.3559 2.89291 19.2975 4.16535 19.0934 5.53089Z" fill="black"/>
<path d="M33.7352 15.808C33.5311 17.1735 32.2587 18.1151 30.8932 17.911C29.5276 17.7069 28.5861 16.4345 28.7901 15.0689C28.9942 13.7034 30.2667 12.7618 31.6322 12.9659C32.9978 13.17 33.9393 14.4424 33.7352 15.808Z" fill="black"/>
<path d="M40.4648 24.9026C40.2608 26.2681 38.9883 27.2097 37.6228 27.0056C36.2572 26.8015 35.3157 25.5291 35.5198 24.1635C35.7238 22.798 36.9963 21.8564 38.3618 22.0605C39.7274 22.2646 40.6689 23.537 40.4648 24.9026Z" fill="black"/>
<path d="M25.8231 14.6255C25.619 15.991 24.3466 16.9326 22.9811 16.7285C21.6155 16.5244 20.674 15.252 20.878 13.8864C21.0821 12.5209 22.3546 11.5794 23.7201 11.7834C25.0856 11.9875 26.0272 13.26 25.8231 14.6255Z" fill="black"/>
<path d="M32.5527 23.7201C32.3486 25.0856 31.0762 26.0272 29.7107 25.8231C28.3451 25.619 27.4036 24.3466 27.6076 22.981C27.8117 21.6155 29.0842 20.6739 30.4497 20.878C31.8153 21.0821 32.7568 22.3545 32.5527 23.7201Z" fill="black"/>
<path d="M39.2823 32.8147C39.0783 34.1802 37.8058 35.1218 36.4403 34.9177C35.0747 34.7136 34.1332 33.4412 34.3373 32.0756C34.5413 30.7101 35.8138 29.7685 37.1793 29.9726C38.5449 30.1767 39.4864 31.4491 39.2823 32.8147Z" fill="black"/>
<path d="M9.99877 12.2605C9.79469 13.6261 8.52226 14.5676 7.15671 14.3636C5.79116 14.1595 4.84961 12.887 5.05369 11.5215C5.25778 10.1559 6.53021 9.21439 7.89576 9.41847C9.2613 9.62256 10.2029 10.895 9.99877 12.2605Z" fill="black"/>
<path d="M8.81628 20.1727C8.6122 21.5382 7.33976 22.4798 5.97422 22.2757C4.60867 22.0716 3.66712 20.7992 3.8712 19.4336C4.07528 18.0681 5.34772 17.1265 6.71326 17.3306C8.07881 17.5347 9.02036 18.8071 8.81628 20.1727Z" fill="black"/>
<path d="M16.7285 21.3551C16.5244 22.7207 15.252 23.6622 13.8864 23.4582C12.5209 23.2541 11.5793 21.9816 11.7834 20.6161C11.9875 19.2505 13.2599 18.309 14.6255 18.5131C15.991 18.7172 16.9326 19.9896 16.7285 21.3551Z" fill="black"/>
<path d="M15.546 29.2673C15.3419 30.6328 14.0695 31.5744 12.704 31.3703C11.3384 31.1662 10.3969 29.8938 10.6009 28.5282C10.805 27.1627 12.0775 26.2211 13.443 26.4252C14.8085 26.6293 15.7501 27.9017 15.546 29.2673Z" fill="black"/>
<path d="M12.1703 4.49622C11.8846 6.40799 10.1032 7.72616 8.19142 7.44044C6.27965 7.15473 4.96148 5.37332 5.24719 3.46156C5.53291 1.54979 7.31432 0.231618 9.22608 0.517333C11.1378 0.803048 12.456 2.58446 12.1703 4.49622Z" fill="black"/>
<path d="M18.8999 13.5908C18.6142 15.5026 16.8328 16.8208 14.921 16.535C13.0093 16.2493 11.6911 14.4679 11.9768 12.5562C12.2625 10.6444 14.0439 9.32622 15.9557 9.61194C17.8675 9.89765 19.1856 11.6791 18.8999 13.5908Z" fill="black"/>
<path d="M25.6297 22.6854C25.3439 24.5972 23.5625 25.9154 21.6508 25.6297C19.739 25.3439 18.4208 23.5625 18.7065 21.6508C18.9923 19.739 20.7737 18.4208 22.6854 18.7065C24.5972 18.9923 25.9154 20.7737 25.6297 22.6854Z" fill="black"/>
<path d="M32.3593 31.78C32.0736 33.6918 30.2921 35.01 28.3804 34.7243C26.4686 34.4385 25.1504 32.6571 25.4362 30.7454C25.7219 28.8336 27.5033 27.5154 29.415 27.8011C31.3268 28.0869 32.645 29.8683 32.3593 31.78Z" fill="black"/>
<path d="M39.0889 40.8746C38.8032 42.7864 37.0218 44.1046 35.11 43.8188C33.1982 43.5331 31.8801 41.7517 32.1658 39.84C32.4515 37.9282 34.2329 36.61 36.1447 36.8957C38.0564 37.1815 39.3746 38.9629 39.0889 40.8746Z" fill="black"/>
<path d="M27.0055 6.71336C26.8014 8.0789 25.529 9.02046 24.1634 8.81637C22.7979 8.61229 21.8563 7.33986 22.0604 5.97431C22.2645 4.60876 23.5369 3.66721 24.9025 3.87129C26.268 4.07538 27.2096 5.34781 27.0055 6.71336Z" fill="black"/>
<path d="M22.2756 38.3619C22.0715 39.7274 20.7991 40.669 19.4336 40.4649C18.068 40.2608 17.1265 38.9884 17.3305 37.6228C17.5346 36.2573 18.8071 35.3157 20.1726 35.5198C21.5382 35.7239 22.4797 36.9963 22.2756 38.3619Z" fill="black"/>
<path d="M30.1877 39.5444C29.9837 40.9099 28.7112 41.8514 27.3457 41.6474C25.9801 41.4433 25.0386 40.1708 25.2427 38.8053C25.4467 37.4398 26.7192 36.4982 28.0847 36.7023C29.4503 36.9064 30.3918 38.1788 30.1877 39.5444Z" fill="black"/>
<path d="M23.4581 30.4497C23.254 31.8153 21.9816 32.7568 20.6161 32.5528C19.2505 32.3487 18.309 31.0762 18.513 29.7107C18.7171 28.3452 19.9896 27.4036 21.3551 27.6077C22.7207 27.8118 23.6622 29.0842 23.4581 30.4497Z" fill="black"/>
<path d="M33.9287 7.74803C33.8062 8.56736 33.0428 9.13229 32.2234 9.00984C31.4041 8.88739 30.8392 8.12393 30.9616 7.3046C31.0841 6.48527 31.8475 5.92034 32.6669 6.04279C33.4862 6.16524 34.0511 6.9287 33.9287 7.74803Z" fill="black"/>
<path d="M6.64487 27.937C6.52242 28.7563 5.75896 29.3212 4.93963 29.1988C4.1203 29.0763 3.55537 28.3129 3.67782 27.4935C3.80027 26.6742 4.56373 26.1093 5.38306 26.2317C6.20239 26.3542 6.76732 27.1176 6.64487 27.937Z" fill="black"/>
<path d="M5.46237 35.8491C5.33993 36.6684 4.57646 37.2334 3.75714 37.1109C2.93781 36.9885 2.37288 36.225 2.49533 35.4057C2.61778 34.5864 3.38124 34.0214 4.20056 34.1439C5.01989 34.2663 5.58482 35.0298 5.46237 35.8491Z" fill="black"/>
<path d="M13.3745 37.0316C13.252 37.8509 12.4886 38.4158 11.6692 38.2934C10.8499 38.1709 10.285 37.4075 10.4074 36.5882C10.5299 35.7688 11.2933 35.2039 12.1127 35.3263C12.932 35.4488 13.4969 36.2123 13.3745 37.0316Z" fill="black"/>
<path d="M40.6583 16.8426C40.5358 17.662 39.7724 18.2269 38.9531 18.1044C38.1337 17.982 37.5688 17.2185 37.6912 16.3992C37.8137 15.5799 38.5772 15.0149 39.3965 15.1374C40.2158 15.2598 40.7807 16.0233 40.6583 16.8426Z" fill="black"/>
<path d="M41.8408 8.93051C41.7183 9.74983 40.9549 10.3148 40.1356 10.1923C39.3162 10.0699 38.7513 9.30641 38.8737 8.48708C38.9962 7.66775 39.7597 7.10282 40.579 7.22527C41.3983 7.34772 41.9632 8.11118 41.8408 8.93051Z" fill="black"/>
</svg>
